<?xml version="1.0" standalone="no"?>
<!DOCTYPE svg PUBLIC "-//W3C//DTD SVG 20010904//EN"
 "http://www.w3.org/TR/2001/REC-SVG-20010904/DTD/svg10.dtd">
<svg version="1.0" xmlns="http://www.w3.org/2000/svg"
 width="530.000000pt" height="530.000000pt" viewBox="0 0 530.000000 530.000000"
 preserveAspectRatio="xMidYMid meet">
<metadata>
Created by potrace 1.14, written by Peter Selinger 2001-2017
</metadata>
<g transform="translate(0.000000,530.000000) scale(0.100000,-0.100000)"
fill="#000000" stroke="none">
<path d="M2387 4040 c-53 -11 -123 -36 -175 -61 -148 -73 -282 -228 -332 -381
l-12 -38 -94 0 -94 0 0 -40 0 -40 109 0 c59 0 136 -3 170 -6 l61 -7 0 -38 0
-39 -69 0 c-37 0 -96 -3 -130 -6 l-61 -7 0 -42 c0 -23 9 -76 20 -119 59 -232
236 -406 486 -478 69 -20 101 -23 264 -23 166 0 193 2 260 23 125 40 207 88
295 177 131 130 194 284 195 473 l0 82 45 0 46 0 -7 38 c-24 134 -85 249 -182
346 -96 96 -219 162 -360 191 -98 21 -325 18 -435 -5z m331 -305 c87 -40 164
-134 195 -236 4 -12 25 -18 86 -23 l81 -7 0 -40 0 -39 -52 0 c-29 0 -83 -3
-119 -6 l-67 -7 -5 -42 c-17 -123 -96 -235 -209 -297 -58 -32 -66 -34 -117
-26 -71 11 -163 61 -208 112 -47 54 -90 148 -99 215 l-7 54 45 -7 45 -7 7 51
c20 147 111 261 249 311 70 25 112 23 175 -6z"/>
<path d="M1940 4010 l0 -40 40 0 40 0 0 40 0 40 -40 0 -40 0 0 -40z"/>
<path d="M518 2469 c-98 -23 -202 -98 -259 -188 -70 -109 -79 -273 -22 -393
82 -173 259 -270 439 -240 283 47 438 339 316 595 -83 175 -285 271 -474 226z
m173 -165 c67 -20 148 -97 167 -160 64 -216 -142 -404 -346 -314 -62 28 -99
64 -128 125 -63 133 7 297 148 346 66 23 90 23 159 3z"/>
<path d="M1355 2467 c-88 -34 -138 -90 -161 -178 -22 -85 3 -174 67 -237 60
-58 89 -66 259 -72 169 -5 192 -12 209 -60 12 -36 3 -66 -29 -95 -20 -18 -36
-20 -155 -20 -120 0 -136 2 -162 21 -15 12 -29 31 -31 43 -3 20 -9 21 -86 21
l-83 0 8 -45 c11 -61 31 -95 77 -137 67 -61 106 -70 288 -66 180 3 209 12 275
81 112 115 79 314 -65 390 -36 19 -62 22 -203 27 -154 5 -163 6 -187 29 -36
34 -36 88 0 122 24 22 34 24 151 27 146 4 179 -5 199 -55 l14 -33 80 0 c91 0
92 1 65 81 -22 63 -70 118 -129 145 -47 22 -63 24 -211 23 -97 0 -172 -5 -190
-12z"/>
<path d="M2335 2466 c57 -18 143 -75 187 -124 71 -78 93 -142 117 -330 24
-188 157 -329 343 -363 182 -33 369 66 451 238 30 63 32 76 32 173 0 97 -2
110 -31 171 -38 79 -91 140 -159 185 -98 62 -115 64 -569 63 -347 0 -405 -2
-371 -13z m792 -161 c110 -33 190 -148 181 -260 -14 -167 -169 -271 -337 -225
-61 16 -145 100 -161 160 -15 55 -8 155 13 197 32 62 103 117 172 134 48 11
78 10 132 -6z"/>
<path d="M3920 2461 c172 -67 267 -201 284 -397 13 -144 49 -227 137 -309 220
-206 581 -115 680 172 23 68 25 187 4 255 -40 134 -144 238 -278 280 -53 16
-99 18 -465 18 -400 -1 -406 -1 -362 -19z m779 -157 c111 -33 188 -144 179
-259 -15 -181 -191 -288 -356 -215 -62 28 -99 64 -128 125 -77 163 44 357 227
364 14 1 49 -6 78 -15z"/>
<path d="M2080 2060 l0 -250 88 0 c101 0 165 24 219 81 91 96 88 253 -8 348
-54 55 -101 71 -206 71 l-93 0 0 -250z"/>
<path d="M3650 2061 l0 -251 84 0 c45 0 98 5 117 12 207 71 239 339 54 453
-44 27 -57 30 -152 33 l-103 4 0 -251z"/>
</g>
</svg>
